<?xml version="1.0" standalone="no"?>
<!DOCTYPE svg PUBLIC "-//W3C//DTD SVG 20010904//EN"
 "http://www.w3.org/TR/2001/REC-SVG-20010904/DTD/svg10.dtd">
<svg version="1.0" xmlns="http://www.w3.org/2000/svg"
 width="700.000000pt" height="700.000000pt" viewBox="0 0 700.000000 700.000000"
 preserveAspectRatio="xMidYMid meet">
<metadata>
Created by potrace 1.14, written by Peter Selinger 2001-2017
</metadata>
<g transform="translate(0.000000,700.000000) scale(0.100000,-0.100000)"
fill="#000000" stroke="none">
<path d="M2685 6533 c-27 -2 -347 -4 -710 -6 -363 -2 -673 -7 -690 -10 -16 -4
-64 -14 -105 -23 -138 -30 -301 -98 -435 -182 -196 -123 -396 -343 -501 -553
-21 -41 -36 -74 -34 -74 2 0 -3 -13 -12 -30 -45 -80 -98 -299 -113 -460 -6
-65 -7 -3262 -1 -3295 3 -14 7 -43 10 -65 22 -189 112 -449 220 -640 144 -253
372 -478 601 -592 121 -61 294 -111 440 -128 43 -5 465 -6 1723 -5 l242 0 -2
3030 -2 3030 -35 0 c-229 3 -557 5 -596 3z m-275 -1080 c1 -252 3 -791 6
-1198 11 -1829 16 -2904 14 -3126 0 -23 -4 -26 -37 -27 -794 -15 -811 -15
-959 45 -229 91 -399 304 -438 548 -14 85 -26 399 -42 1115 -17 800 2 2410 31
2557 48 249 167 409 360 487 52 21 82 28 190 50 11 2 212 4 447 5 l427 1 1
-457z"/>
<path d="M3686 6530 c-2 -3 -4 -1367 -5 -3032 l-1 -3028 682 -1 c887 -1 1236
1 1273 5 256 30 471 115 660 260 70 54 220 208 277 286 95 129 187 301 245
460 27 73 69 227 77 280 3 19 8 46 11 60 2 14 7 48 9 75 6 61 8 3235 2 3285
-3 19 -7 60 -10 90 -9 78 -14 105 -37 190 -128 481 -477 854 -939 1003 -58 19
-127 38 -153 41 -27 4 -59 10 -70 13 -44 11 -2016 24 -2021 13z m1804 -675
c356 -62 531 -297 540 -724 1 -58 3 -146 5 -196 23 -668 23 -1926 0 -2605 -2
-63 -6 -205 -10 -315 -6 -197 -13 -329 -20 -363 -16 -78 -33 -130 -73 -212
-38 -77 -60 -108 -127 -175 -93 -92 -161 -136 -278 -176 -107 -37 -175 -46
-323 -43 -414 8 -627 14 -631 17 -4 5 -4 610 3 1652 11 1866 13 2299 14 2706
0 240 3 439 6 442 4 3 189 6 413 6 291 -1 427 -4 481 -14z"/>
</g>
</svg>
