<?xml version="1.0" encoding="UTF-8" standalone="no"?>
<!-- Created with Inkscape (http://www.inkscape.org/) -->

<svg
   width="80.226433mm"
   height="74.397469mm"
   viewBox="0 0 80.226435 74.397468"
   version="1.1"
   id="svg10487"
   inkscape:version="1.2.2 (b0a8486541, 2022-12-01, custom)"
   sodipodi:docname="metamask-logo.svg"
   xmlns:inkscape="http://www.inkscape.org/namespaces/inkscape"
   xmlns:sodipodi="http://sodipodi.sourceforge.net/DTD/sodipodi-0.dtd"
   xmlns="http://www.w3.org/2000/svg"
   xmlns:svg="http://www.w3.org/2000/svg">
  <sodipodi:namedview
     id="namedview10489"
     pagecolor="#ffffff"
     bordercolor="#000000"
     borderopacity="0.25"
     inkscape:showpageshadow="2"
     inkscape:pageopacity="0.0"
     inkscape:pagecheckerboard="0"
     inkscape:deskcolor="#d1d1d1"
     inkscape:document-units="mm"
     showgrid="false"
     inkscape:zoom="0.89263468"
     inkscape:cx="96.344005"
     inkscape:cy="133.87336"
     inkscape:window-width="1856"
     inkscape:window-height="1016"
     inkscape:window-x="0"
     inkscape:window-y="0"
     inkscape:window-maximized="1"
     inkscape:current-layer="layer1" />
  <defs
     id="defs10484" />
  <g
     inkscape:label="Layer 1"
     inkscape:groupmode="layer"
     id="layer1"
     transform="translate(-69.164361,-18.472555)">
    <g
       id="g12640"
       transform="matrix(0.3133845,0,0,0.3133845,59.355426,7.5040874)">
      <path
         fill="#e2761b"
         stroke="#e2761b"
         stroke-linecap="round"
         stroke-linejoin="round"
         d="M 274.1,35.5 174.6,109.4 193,65.8 Z"
         id="path12119" />
      <path
         d="m 44.4,35.5 98.7,74.6 -17.5,-44.3 z m 193.9,171.3 -26.5,40.6 56.7,15.6 16.3,-55.3 z M 33.9,207.7 50.1,263 106.8,247.4 80.3,206.8 Z"
         class="st1"
         id="path12121"
         style="fill:#e4761b;stroke:#e4761b;stroke-linecap:round;stroke-linejoin:round" />
      <path
         d="m 103.6,138.2 -15.8,23.9 56.3,2.5 -2,-60.5 z m 111.3,0 -39,-34.8 -1.3,61.2 56.2,-2.5 z m -108.1,109.2 33.8,-16.5 -29.2,-22.8 z m 71.1,-16.5 33.9,16.5 -4.7,-39.3 z"
         class="st1"
         id="path12123"
         style="fill:#e4761b;stroke:#e4761b;stroke-linecap:round;stroke-linejoin:round" />
      <path
         fill="#d7c1b3"
         stroke="#d7c1b3"
         stroke-linecap="round"
         stroke-linejoin="round"
         d="m 211.8,247.4 -33.9,-16.5 2.7,22.1 -0.3,9.3 z m -105,0 31.5,14.9 -0.2,-9.3 2.5,-22.1 z"
         id="path12125" />
      <path
         fill="#233447"
         stroke="#233447"
         stroke-linecap="round"
         stroke-linejoin="round"
         d="m 138.8,193.5 -28.2,-8.3 19.9,-9.1 z m 40.9,0 8.3,-17.4 20,9.1 z"
         id="path12127" />
      <path
         fill="#cd6116"
         stroke="#cd6116"
         stroke-linecap="round"
         stroke-linejoin="round"
         d="m 106.8,247.4 4.8,-40.6 -31.3,0.9 z m 100.2,-40.6 4.8,40.6 26.5,-39.7 z m 23.8,-44.7 -56.2,2.5 5.2,28.9 8.3,-17.4 20,9.1 z m -120.2,23.1 20,-9.1 8.2,17.4 5.3,-28.9 -56.3,-2.5 z"
         id="path12129" />
      <path
         fill="#e4751f"
         stroke="#e4751f"
         stroke-linecap="round"
         stroke-linejoin="round"
         d="m 87.8,162.1 23.6,46 -0.8,-22.9 z m 120.3,23.1 -1,22.9 23.7,-46 z m -64,-20.6 -5.3,28.9 6.6,34.1 1.5,-44.9 z m 30.5,0 -2.7,18 1.2,45 6.7,-34.1 z"
         id="path12131" />
      <path
         d="m 179.8,193.5 -6.7,34.1 4.8,3.3 29.2,-22.8 1,-22.9 z m -69.2,-8.3 0.8,22.9 29.2,22.8 4.8,-3.3 -6.6,-34.1 z"
         class="st6"
         id="path12133"
         style="fill:#f6851b;stroke:#f6851b;stroke-linecap:round;stroke-linejoin:round" />
      <path
         fill="#c0ad9e"
         stroke="#c0ad9e"
         stroke-linecap="round"
         stroke-linejoin="round"
         d="m 180.3,262.3 0.3,-9.3 -2.5,-2.2 h -37.7 l -2.3,2.2 0.2,9.3 -31.5,-14.9 11,9 22.3,15.5 h 38.3 l 22.4,-15.5 11,-9 z"
         id="path12135" />
      <path
         fill="#161616"
         stroke="#161616"
         stroke-linecap="round"
         stroke-linejoin="round"
         d="m 177.9,230.9 -4.8,-3.3 h -27.7 l -4.8,3.3 -2.5,22.1 2.3,-2.2 h 37.7 l 2.5,2.2 z"
         id="path12137" />
      <path
         fill="#763d16"
         stroke="#763d16"
         stroke-linecap="round"
         stroke-linejoin="round"
         d="m 278.3,114.2 8.5,-40.8 -12.7,-37.9 -96.2,71.4 37,31.3 52.3,15.3 11.6,-13.5 -5,-3.6 8,-7.3 -6.2,-4.8 8,-6.1 z M 31.8,73.4 l 8.5,40.8 -5.4,4 8,6.1 -6.1,4.8 8,7.3 -5,3.6 11.5,13.5 52.3,-15.3 37,-31.3 -96.2,-71.4 z"
         id="path12139" />
      <path
         d="m 267.2,153.5 -52.3,-15.3 15.9,23.9 -23.7,46 31.2,-0.4 h 46.5 z M 103.6,138.2 51.3,153.5 33.9,207.7 h 46.4 l 31.1,0.4 -23.6,-46 z m 71,26.4 3.3,-57.7 15.2,-41.1 h -67.5 l 15,41.1 3.5,57.7 1.2,18.2 0.1,44.8 h 27.7 l 0.2,-44.8 z"
         class="st6"
         id="path12141"
         style="fill:#f6851b;stroke:#f6851b;stroke-linecap:round;stroke-linejoin:round" />
    </g>
  </g>
</svg>
